<svg width="20" height="20" viewBox="0 0 20 20" fill="currentColor"
    xmlns="http://www.w3.org/2000/svg">
    <path fill-rule="evenodd" clip-rule="evenodd" d="M14.135 14.9974C12.8145 16.1216 11.1028 16.8 9.23268 16.8C5.05373 16.8 1.66602 13.4123 1.66602 9.23334C1.66602 5.05438 5.05373 1.66667 9.23268 1.66667C13.4116 1.66667 16.7993 5.05438 16.7993 9.23334C16.7993 11.0922 16.1291 12.7944 15.0171 14.1117L18.6491 17.7437L17.7652 18.6276L14.135 14.9974ZM15.5493 9.23334C15.5493 12.7219 12.7213 15.55 9.23268 15.55C5.74408 15.55 2.91602 12.7219 2.91602 9.23334C2.91602 5.74474 5.74408 2.91667 9.23268 2.91667C12.7213 2.91667 15.5493 5.74474 15.5493 9.23334Z" fill-opacity="0.7"/>
</svg>
